:SAMPLES-PER-SECOND 30
:FRAME-RANGE 1-4244
:FULLY-SPECIFIED
:DEGREES
2388
root  -6.0189 39.5462 19.6878 -22.4383 58.2982 -20.4335
RightUpLeg  -69.5513 -10.8012 13.8614
RightLeg  91.5397 0.874338 -9.29376
RightFoot  -31.327 0.553024 4.34777
RightToes  -1.33073e-015 0 -3.6325e-017
Spine  16.4449 -7.20739 -11.3308
Spine1  -1.43826 -8.62783 4.69535
HEad  40.7636 23.9752 0.096948
LeftShoulder1  1.01811 -1.35376 -15.2724
LeftArm  10.9166 -8.16882 -29.3319
LeftForeArm  7.91819 -23.0818 -4.61449
LeftHand  -0.277162 2.74308 11.8389
RightShoulder  0.115298 -2.94475 23.572
RightArm  -41.3879 -34.6211 42.3157
RightForeArm  28.9211 2.10034 -1.68997
RightHand  -0.0695951 -5.00054 -17.0607
LeftUpLeg  -11.6133 3.92318 15.3255
LeftLeg  22.1506 2.49988 2.50329
LeftFoot  -4.9703 0.366189 -6.04128
LeftToes  2.72522e-012 8.43823e-011 6.24977e-012
2389
root  -6.20971 39.4123 19.8075 -19.4422 59.3157 -17.8317
RightUpLeg  -66.9788 -10.9066 11.0364
RightLeg  96.9688 2.20741 -11.8458
RightFoot  -33.7894 0.279369 2.56856
RightToes  -1.33073e-015 0 -3.6325e-017
Spine  15.8873 -6.82847 -12.0422
Spine1  -1.4717 -8.18091 3.44021
HEad  39.9833 24.8538 0.538879
LeftShoulder1  0.904373 -0.63996 -16.4378
LeftArm  13.2356 -6.75833 -29.1998
LeftForeArm  8.37102 -22.8949 -4.60817
LeftHand  -0.261871 2.84046 11.5719
RightShoulder  0.125484 -2.90545 23.1506
RightArm  -41.6705 -33.6996 44.3662
RightForeArm  28.6116 -0.330768 -2.20623
RightHand  -0.12109 -4.62883 -16.6537
LeftUpLeg  -12.8238 5.32386 13.6547
LeftLeg  22.1697 0.981935 2.16012
LeftFoot  -4.82447 0.360307 -5.81814
LeftToes  2.72522e-012 8.43823e-011 6.24977e-012
2390
root  -6.49359 39.264 19.9484 -16.7329 60.24 -15.6674
RightUpLeg  -62.9538 -10.4012 7.40283
RightLeg  101.039 3.24418 -12.401
RightFoot  -34.7331 0.194158 2.08257
RightToes  -1.33073e-015 0 -3.6325e-017
Spine  15.0899 -6.37723 -12.5007
Spine1  -0.739725 -7.73266 2.19387
HEad  38.6703 25.9655 -0.313154
LeftShoulder1  0.841979 -0.178574 -17.7874
LeftArm  14.3548 -4.92573 -29.2399
LeftForeArm  9.08833 -22.3451 -4.67358
LeftHand  -0.244391 2.98404 11.3879
RightShoulder  0.193776 -2.66952 23.0365
RightArm  -42.3189 -32.2517 46.1096
RightForeArm  30.5637 -1.98244 -2.77473
RightHand  -0.198955 -4.04494 -16.2395
LeftUpLeg  -14.4118 6.04702 12.4181
LeftLeg  22.4957 -0.0269102 1.85767
LeftFoot  -4.57607 0.378048 -5.92914
LeftToes  2.72522e-012 8.43823e-011 6.24977e-012
2391
root  -6.84841 39.1197 20.1159 -14.7171 61.2064 -14.2656
RightUpLeg  -57.476 -9.19713 3.3554
RightLeg  102.961 3.34327 -11.1172
RightFoot  -33.4515 0.0767193 1.55939
RightToes  -1.33073e-015 0 -3.6325e-017
Spine  14.5566 -5.75931 -12.5976
Spine1  -0.0395097 -7.19028 1.0801
HEad  37.7389 26.288 -1.23768
LeftShoulder1  0.829341 0.0191223 -18.9415
LeftArm  14.2991 -2.76709 -29.8577
LeftForeArm  9.64805 -21.1398 -5.09337
LeftHand  -0.234564 3.07599 11.3282
RightShoulder  0.288538 -2.34316 23.0108
RightArm  -42.2766 -30.6312 47.0229
RightForeArm  32.5848 -3.02616 -2.9573
RightHand  -0.22071 -3.88659 -16.2391
LeftUpLeg  -16.0592 5.55996 11.6238
LeftLeg  22.7344 -0.184026 2.05799
LeftFoot  -4.12904 0.418144 -6.23882
LeftToes  2.72522e-012 8.43823e-011 6.24977e-012
2392
root  -7.24548 38.9736 20.3371 -14.1511 62.5623 -14.4515
RightUpLeg  -50.6392 -7.44337 -0.130896
RightLeg  101.825 2.44833 -8.5473
RightFoot  -32.2674 0.206856 2.30975
RightToes  -1.33073e-015 0 -3.6325e-017
Spine  14.1954 -5.13688 -12.2621
Spine1  0.513354 -6.72152 0.464944
HEad  37.1331 25.4414 -1.68901
LeftShoulder1  0.784687 0.266543 -19.5701
LeftArm  12.5187 -0.231262 -31.3521
LeftForeArm  11.3587 -19.4671 -5.91545
LeftHand  -0.211129 3.31143 11.2499
RightShoulder  0.358757 -2.09828 22.9227
RightArm  -41.688 -29.3176 47.1449
RightForeArm  33.7187 -3.17236 -2.72483
RightHand  -0.251189 -3.67808 -16.3674
LeftUpLeg  -17.9876 4.74227 11.8361
LeftLeg  23.2801 -0.605536 1.7587
LeftFoot  -3.80475 0.479455 -6.92842
LeftToes  2.72522e-012 8.43823e-011 6.24977e-012
2393
root  -7.63576 38.8173 20.5972 -12.8149 64.35 -14.1164
RightUpLeg  -43.623 -5.92678 -3.16263
RightLeg  97.8391 1.81985 -8.61896
RightFoot  -30.9645 0.267782 2.76631
RightToes  -1.33073e-015 0 -3.6325e-017
Spine  13.415 -4.51395 -12.2894
Spine1  1.00056 -6.24845 0.316471
HEad  36.8603 23.8734 -1.48633
LeftShoulder1  0.730907 0.526119 -20.0805
LeftArm  10.2449 2.40552 -32.7441
LeftForeArm  12.8211 -17.9084 -6.77704
LeftHand  -0.200643 3.34138 10.7971
RightShoulder  0.381734 -2.01337 22.7851
RightArm  -41.4228 -28.8393 46.9369
RightForeArm  33.8088 -1.48821 -2.19782
RightHand  -0.247106 -3.69184 -16.2138
LeftUpLeg  -20.304 2.82827 11.8867
LeftLeg  23.7559 -0.14694 1.60103
LeftFoot  -3.19265 0.535261 -7.24024
LeftToes  2.72522e-012 8.43823e-011 6.24977e-012
